<svg height="512pt" viewBox="0 0 512 512" width="512pt" xmlns="http://www.w3.org/2000/svg"><path d="m512 255.75c0 141.246094-114.503906 255.75-255.75 255.75s-255.75-114.503906-255.75-255.75 114.503906-255.75 255.75-255.75 255.75 114.503906 255.75 255.75zm0 0" fill="#9e69e2"/><path d="m512 255.75c0 26.023438-3.886719 51.140625-11.121094 74.796875-31.976562 104.746094-129.410156 180.953125-244.628906 180.953125-104.457031 0-194.300781-62.636719-234-152.402344-13.988281-31.597656-21.75-66.5625-21.75-103.347656 0-46.175781 12.238281-89.480469 33.648438-126.875 44.074218 76.992188 127.035156 128.875 222.101562 128.875s178.035156-51.882812 222.101562-128.875c21.410157 37.394531 33.648438 80.699219 33.648438 126.875zm0 0" fill="#8e4fd2"/><path d="m31.210938 377.335938c7.148437 13.203124 15.414062 25.714843 24.695312 37.390624 46.851562 58.960938 119.183594 96.773438 200.34375 96.773438s153.488281-37.8125 200.34375-96.773438c9.277344-11.675781 17.542969-24.1875 24.695312-37.390624zm0 0" fill="#7038ba"/><path d="m342.789062 340.226562-36.996093 20.042969c-53.078125 28.75-112.488281 43.804688-172.851563 43.804688h-27.160156v-148.523438h50.96875c14.15625 0 27.992188 2.917969 40.730469 8.410157 12.726562 5.496093 24.347656 13.566406 34.054687 23.867187h38.902344l.808594-108.457031c.050781-6.757813-7.960938-10.351563-12.976563-5.824219l-2.945312 2.660156c-2.296875 2.070313-5.003907 3-7.664063 3-5.964844 0-11.628906-4.65625-11.628906-11.578125 0-1.140625.109375-2.257812.320312-3.339844l-10.070312 3.128907c-11.277344 3.765625-23.257812-3.457031-25.175781-15.195313v-24.785156c0-11.300781 9.113281-20.480469 20.410156-20.582031l40.5625-.347657h9.800781c10.6875.027344 20.417969 6.144532 25.085938 15.765626l68.882812 148.113281c11.996094 25.714843 1.886719 56.324219-23.058594 69.839843zm0 0" fill="#ffa87a"/><path d="m105.777344 255.25v148.824219h-58.035156c-11.246094-15.695313-20.769532-32.71875-28.269532-50.789063-12.550781-30.191406-19.472656-63.308594-19.472656-98.035156 0-13.605469 1.058594-26.964844 3.117188-39.988281 35.566406 9.128906 70.042968 22.515625 102.660156 39.988281zm0 0" fill="#ff3445"/><path d="m319.902344 293.332031-36.996094 20.042969c-46.832031 25.363281-99.574219 39.128906-152.820312 39.910156h-24.304688v-97.734375h50.96875c14.15625 0 27.992188 2.917969 40.730469 8.410157 12.726562 5.496093 24.347656 13.566406 34.054687 23.867187h38.902344l.808594-108.457031c.050781-6.757813-7.960938-10.351563-12.976563-5.824219l-2.945312 2.660156c-2.296875 2.070313-5.003907 3-7.664063 3-5.964844 0-11.628906-4.65625-11.628906-11.578125 0-1.140625.109375-2.257812.320312-3.339844l-10.070312 3.128907c-11.277344 3.765625-23.257812-3.457031-25.175781-15.195313v-24.785156c0-11.300781 9.113281-20.480469 20.410156-20.582031l22.839844-.195313c10.726562-.09375 20.449219 6.289063 24.628906 16.164063l60.226563 142.296875c4.847656 10.371094.75 22.757812-9.308594 28.210937zm0 0" fill="#ffc0a4"/><path d="m106.277344 353.785156v50.789063h-58.035156c-11.25-15.695313-20.769532-32.71875-28.273438-50.789063zm0 0" fill="#dd1265"/><g fill="#fff"><path d="m306.5625 435.816406h-1.523438c-6.746093 0-12.214843-5.46875-12.214843-12.214844v-1.523437h-8.707031v1.523437c0 6.746094-5.46875 12.214844-12.214844 12.214844h-1.523438v8.707032h1.523438c6.746094 0 12.214844 5.46875 12.214844 12.214843v1.523438h8.707031v-1.523438c0-6.746093 5.46875-12.214843 12.214843-12.214843h1.523438zm0 0"/><path d="m456.414062 276.699219h-1.523437c-6.746094 0-12.214844-5.46875-12.214844-12.214844v-1.523437h-8.707031v1.523437c0 6.746094-5.46875 12.214844-12.214844 12.214844h-1.523437v8.707031h1.523437c6.746094 0 12.214844 5.46875 12.214844 12.214844v1.523437h8.707031v-1.523437c0-6.746094 5.46875-12.214844 12.214844-12.214844h1.523437zm0 0"/><path d="m146.714844 179.792969h-1.519532c-6.746093 0-12.214843-5.46875-12.214843-12.214844v-1.519531h-8.707031v1.519531c0 6.746094-5.46875 12.214844-12.21875 12.214844h-1.523438v8.707031h1.523438c6.75 0 12.21875 5.46875 12.21875 12.21875v1.523438h8.707031v-1.523438c0-6.75 5.46875-12.21875 12.214843-12.21875h1.519532zm0 0"/><path d="m395.472656 102.652344h-1.519531c-6.75 0-12.21875-5.46875-12.21875-12.214844v-1.523438h-8.707031v1.523438c0 6.746094-5.46875 12.214844-12.214844 12.214844h-1.523438v8.707031h1.523438c6.746094 0 12.214844 5.46875 12.214844 12.214844v1.523437h8.707031v-1.523437c0-6.746094 5.46875-12.214844 12.21875-12.214844h1.519531zm0 0"/></g></svg>